<?xml version="1.0" encoding="UTF-8"?><svg id="uuid-d27810b7-5337-4f7a-b6d7-173ecb314fbd" xmlns="http://www.w3.org/2000/svg" viewBox="0 0 28.15 27.3"><g id="uuid-8b434de3-2fcb-4165-8ff9-ef193ead8d73"><path d="M22.21,27.3H5.94c-3.28,0-5.94-2.67-5.94-5.94,0-.75.61-1.35,1.35-1.35s1.35.61,1.35,1.35c0,1.78,1.45,3.24,3.23,3.24h16.27c1.78,0,3.24-1.45,3.24-3.24,0-.75.61-1.35,1.35-1.35s1.35.61,1.35,1.35c0,3.28-2.67,5.94-5.94,5.94" style="fill:#fff;"/><path d="M14.07,20.99c-.75,0-1.35-.61-1.35-1.35V1.35c0-.75.61-1.35,1.35-1.35s1.35.61,1.35,1.35v18.28c0,.75-.61,1.35-1.35,1.35" style="fill:#fff;"/><path d="M14.07,20.99c-.36,0-.7-.14-.96-.4l-7.5-7.5c-.53-.53-.53-1.39,0-1.91.53-.53,1.39-.53,1.91,0l6.55,6.55,6.61-6.61c.53-.53,1.39-.53,1.91,0,.53.53.53,1.39,0,1.91l-7.57,7.57c-.25.25-.6.4-.96.4" style="fill:#fff;"/></g></svg>