<?xml version="1.0" encoding="UTF-8"?><svg id="uuid-9436d128-7342-4bca-8a3a-35a417f7943e" xmlns="http://www.w3.org/2000/svg" viewBox="0 0 573.41 921.76"><g id="uuid-808bff8e-9489-471a-a427-558713b42a94"><path d="M570.96,888.6v-100.65c-41.62,16.33-86.45,23.49-132.53,19.53-163.35-14.04-287.56-163.1-300.33-346.59H.06c-3.53,238.25,161.69,440.46,382.57,459.44,67.04,5.76,131.9-5.99,190.78-31.73h-2.45Z" style="fill:#231f20;"/><path d="M570.96,27.12v16.74c-21.03-6.93-43.02-11.5-65.76-13.45C321.32,14.61,157.14,175.85,138.71,390.33c-2.06,23.93-2.21,47.52-.61,70.56H.06c.17-11.95.78-24,1.82-36.11C23.68,171.17,229.62-18.49,461.58,1.44c38.33,3.29,74.99,12.11,109.38,25.68Z" style="fill:#67481f; fill-rule:evenodd;"/><path d="M573.41,888.6c-58.88,25.74-123.74,37.49-190.78,31.73C161.75,901.35-3.47,699.14.06,460.89h138.04c12.77,183.49,136.98,332.55,300.33,346.59,46.08,3.96,90.91-3.2,132.53-19.53v100.65h2.45Z" style="fill:#231f20;"/></g></svg>