<?xml version="1.0" encoding="UTF-8"?><svg id="uuid-351cc212-33be-4f9e-805c-43e0d60c6c72" xmlns="http://www.w3.org/2000/svg" viewBox="0 0 573.41 921.77"><g id="uuid-42e72b61-d244-4be7-a37c-e4076396896a"><path d="M428.13,0C210.13,0,22.63,183.43,1.88,424.78c-1.04,12.11-1.65,24.16-1.82,36.11-.04,2.5-.06,5-.06,7.49V0h428.13Z" style="fill:#9c6e28;"/><path d="M570.96,0v27.12c-34.39-13.57-71.05-22.39-109.38-25.68-11.22-.96-22.37-1.44-33.45-1.44h142.83Z" style="fill:#9c6e28;"/><path d="M138.71,390.33c-2.06,23.93-2.21,47.52-.61,70.56,12.77,183.49,136.98,332.55,300.33,346.59,46.08,3.96,90.91-3.2,132.53-19.53v133.82H0v-453.39c0-2.49.02-4.99.06-7.49.17-11.95.78-24,1.82-36.11C22.63,183.43,210.13,0,428.13,0c11.08,0,22.23.48,33.45,1.44,38.33,3.29,74.99,12.11,109.38,25.68v16.74c-21.03-6.93-43.02-11.5-65.76-13.45C321.32,14.61,157.14,175.85,138.71,390.33Z" style="fill:#231f20;"/><path d="M570.96,888.6v-100.65c-41.62,16.33-86.45,23.49-132.53,19.53-163.35-14.04-287.56-163.1-300.33-346.59H.06c-.04,2.5-.06,5-.06,7.49,0,234.98,164.07,433.17,382.63,451.95,11.22.96,22.37,1.44,33.44,1.44,54.21,0,106.54-11.35,154.89-32.12.82-.34,1.64-.69,2.45-1.05h-2.45Z" style="fill:#231f20;"/><path d="M570.96,27.12v16.74c-21.03-6.93-43.02-11.5-65.76-13.45C321.32,14.61,157.14,175.85,138.71,390.33c-2.06,23.93-2.21,47.52-.61,70.56H.06c.17-11.95.78-24,1.82-36.11C22.63,183.43,210.13,0,428.13,0c11.08,0,22.23.48,33.45,1.44,38.33,3.29,74.99,12.11,109.38,25.68Z" style="fill:#67481f; fill-rule:evenodd;"/><path d="M573.41,888.6c-.81.36-1.63.71-2.45,1.05-48.35,20.77-100.68,32.12-154.89,32.12-11.07,0-22.22-.48-33.44-1.44C164.07,901.55,0,703.36,0,468.38c0-2.49.02-4.99.06-7.49h138.04c12.77,183.49,136.98,332.55,300.33,346.59,46.08,3.96,90.91-3.2,132.53-19.53v100.65h2.45Z" style="fill:#231f20;"/></g></svg>