<?xml version="1.0" encoding="UTF-8"?><svg id="uuid-fc21e805-f73b-4a0f-910f-176b3eade396" xmlns="http://www.w3.org/2000/svg" xmlns:xlink="http://www.w3.org/1999/xlink" viewBox="0 0 277.97 87.04"><defs><clipPath id="uuid-1c3b7ec9-9070-45ed-8538-f553e18ef931"><rect width="277.97" height="87.04" style="fill:none;"/></clipPath><clipPath id="uuid-e6c9ffcc-5a45-4326-b900-7f0085b15cf0"><rect x="-27.8" y="-18.02" width="1133.86" height="5244.09" style="fill:none;"/></clipPath><clipPath id="uuid-237998e7-e38b-4a2d-be3f-266462c367e8"><rect x="-27.79" y="-18.02" width="1133.85" height="5244.09" style="fill:none;"/></clipPath><clipPath id="uuid-dd6753a5-6512-43ef-84fe-6c25d52af384"><rect x="0" width="277.96" height="87.03" style="fill:none;"/></clipPath><clipPath id="uuid-a832dc7f-d8d4-4799-9b4e-55c9cb0b3eef"><path d="M43.52,87.03c-5.87,0-11.57-1.15-16.94-3.42-5.18-2.19-9.84-5.33-13.83-9.33-4-3.99-7.14-8.65-9.33-13.83-2.27-5.37-3.42-11.06-3.42-16.94s1.15-11.57,3.42-16.94c2.19-5.18,5.33-9.84,9.33-13.83,4-4,8.65-7.13,13.83-9.33,5.36-2.27,11.06-3.42,16.94-3.42s11.57,1.15,16.94,3.42c5.18,2.19,9.84,5.33,13.83,9.33,4,4,7.13,8.65,9.33,13.83,2.27,5.37,3.42,11.06,3.42,16.94s-1.15,11.58-3.42,16.94c-2.19,5.18-5.33,9.84-9.33,13.83-4,4-8.65,7.14-13.83,9.33-5.37,2.27-11.07,3.42-16.94,3.42M43.52,1.94C20.59,1.94,1.94,20.59,1.94,43.52s18.65,41.58,41.58,41.58,41.58-18.65,41.58-41.58S66.44,1.94,43.52,1.94Z" style="fill:none;"/></clipPath><linearGradient id="uuid-8bddd86f-0014-4c0e-9cd9-d18c42f527db" x1="-27.8" y1="5226.07" x2="-26.8" y2="5226.07" gradientTransform="translate(3458.8 655398.03) scale(125.4 -125.4)" gradientUnits="userSpaceOnUse"><stop offset="0" stop-color="#9c6e29"/><stop offset=".33" stop-color="#9c6e29"/><stop offset=".37" stop-color="#bb964b"/><stop offset=".41" stop-color="#d6b767"/><stop offset=".45" stop-color="#e9cf7c"/><stop offset=".49" stop-color="#f5dd88"/><stop offset=".52" stop-color="#f9e38d"/><stop offset=".56" stop-color="#f6df89"/><stop offset=".59" stop-color="#edd380"/><stop offset=".63" stop-color="#ddc06f"/><stop offset=".66" stop-color="#c8a558"/><stop offset=".7" stop-color="#ad833b"/><stop offset=".71" stop-color="#a2742f"/><stop offset="1" stop-color="#a2742f"/></linearGradient><clipPath id="uuid-34db6222-fb90-43e3-b964-2b1cf18d6e1e"><path d="M69.98,41.71c0-3.68-.72-7.25-2.14-10.6-1.37-3.25-3.34-6.16-5.84-8.66-2.5-2.5-5.42-4.47-8.66-5.84-3.36-1.42-6.93-2.14-10.6-2.14s-7.25.72-10.6,2.14c-3.24,1.37-6.16,3.34-8.66,5.84-2.5,2.5-4.47,5.42-5.84,8.66-1.42,3.36-2.14,6.93-2.14,10.6,0,3.21.55,6.33,1.63,9.31v.59c0,.41.25.77.6.93.9,2.09,2.06,4.04,3.44,5.83v1.5c0,.56.45,1.01,1.01,1.01h.98c.07,0,.13,0,.19-.02l.12.12c1.38,1.38,2.88,2.59,4.49,3.63v1.55c0,.37.19.68.48.86l-5.06,7.02s9.2,5.06,19.88,5.06,17.6-5.06,17.6-5.06l-4.58-6.87h.22c.56,0,1.01-.45,1.01-1.01v-1.55c1.61-1.04,3.11-2.25,4.49-3.63l.12-.12c.06.01.13.02.19.02h.98c.56,0,1.01-.45,1.01-1.01v-1.5c1.38-1.79,2.54-3.74,3.44-5.83.36-.16.61-.51.61-.93v-.59c1.08-2.98,1.63-6.1,1.63-9.31M63.95,57.09c-.18-.15-.4-.24-.65-.24h-.06l-5.81-4.39c.82-1.13,1.51-2.34,2.05-3.64.27-.64.5-1.29.69-1.95l6.09,1.73c-.51.05-.91.48-.91,1.01v2.01c0,.56.45,1.01,1.01,1.01h.2c-.73,1.58-1.6,3.07-2.61,4.47ZM48.7,67.23c-.14-.39-.51-.66-.95-.66h-.1l-1.3-6.96c1.18-.24,2.33-.6,3.45-1.07.09-.04.18-.08.27-.12l3.57,7.12c-1.57.72-3.22,1.29-4.94,1.7ZM22.18,56.85c-.25,0-.48.09-.65.24-1.01-1.39-1.89-2.89-2.62-4.47h.2c.56,0,1.01-.45,1.01-1.01v-2.01c0-.51-.38-.93-.87-1l6.05-1.72c.19.65.42,1.3.69,1.94.55,1.31,1.24,2.54,2.07,3.67l-5.77,4.36h-.12ZM16.63,39.49h.13s-.14.1-.14.1v-.1ZM17.25,43.4h.98c.56,0,1.01-.45,1.01-1.01v-2.01c0-.26-.1-.5-.26-.68l5.66.52c-.04.49-.06.99-.06,1.48,0,1.62.21,3.2.62,4.73l-7.73,2.2c-.49-1.77-.79-3.61-.89-5.51.18.16.42.26.67.26ZM34.16,18.19h-.24l-.39-1.01c2.81-1.06,5.85-1.65,9.02-1.67v.98h-.26c-.56,0-1.01.45-1.01,1.01v2.01c0,.56.45,1.01,1.01,1.01h.26v2.95c-2.12.02-4.18.4-6.15,1.14l-1.25-3.22c.01-.06.02-.12.02-.18v-2.01c0-.56-.45-1.01-1.01-1.01ZM51.32,18.19c-.56,0-1.01.45-1.01,1.01v2.01c0,.1.01.19.04.28l-1.22,3.14c-1.96-.74-4.02-1.13-6.14-1.16v-2.95h.26c.56,0,1.01-.45,1.01-1.01v-2.01c0-.56-.45-1.01-1.01-1.01h-.26v-.97c3.17.03,6.2.63,9.01,1.69l-.38.98h-.31ZM68.86,39.59l-.13-.09h.12s0,.09,0,.09ZM67.25,43.4h.98c.26,0,.5-.1.67-.26-.1,1.89-.4,3.73-.89,5.49l-7.73-2.2c.41-1.53.61-3.11.61-4.71,0-.5-.02-.99-.06-1.48l5.65-.52c-.16.18-.25.41-.25.67v2.01c0,.56.45,1.01,1.01,1.01ZM60.64,41.71c0,1.58-.2,3.14-.6,4.64l-13.43-3.82c.06-.28.1-.56.1-.86v-.13s13.88-1.29,13.88-1.29c.04.48.06.97.06,1.46ZM42.27,45.58c.16.02.33.03.5.03s.33-.01.5-.03l2.59,13.86c-1.02.18-2.07.27-3.12.27s-2.06-.09-3.06-.26l2.59-13.87ZM39.24,59.36c-1.19-.24-2.34-.59-3.46-1.07-.2-.08-.39-.17-.58-.26l6.53-11.99-2.49,13.32ZM43.78,45.86l6.18,12.32c-.08.04-.17.08-.25.11-1.1.47-2.24.82-3.4,1.06l-2.52-13.49ZM46.66,41.09c-.05-.33-.14-.65-.27-.96l12.49-6.22c.12.26.24.53.36.79.69,1.63,1.12,3.34,1.31,5.1l-13.88,1.29ZM46.18,39.73c-.17-.29-.37-.56-.6-.79l9.42-10.33c.13.13.27.25.4.38,1.33,1.34,2.43,2.85,3.28,4.52l-12.49,6.22ZM45.25,38.63c-.26-.21-.54-.39-.85-.52l5.06-13.07c.08.03.16.06.24.1,1.82.77,3.49,1.84,4.96,3.16l-9.42,10.33ZM43.98,37.94c-.31-.1-.64-.16-.98-.18v-14.03c2.08.03,4.11.41,6.04,1.15l-5.06,13.07ZM42.54,23.72v14.03c-.34.02-.67.08-.98.18l-5.07-13.09c1.93-.72,3.96-1.1,6.05-1.12ZM41.14,38.1c-.31.14-.59.32-.85.52l-9.45-10.36c1.46-1.31,3.12-2.36,4.92-3.13.1-.04.2-.08.3-.12l5.07,13.09ZM39.96,38.93c-.23.24-.43.5-.6.79l-12.54-6.25c.85-1.66,1.94-3.16,3.26-4.49.14-.14.29-.28.43-.42l9.45,10.36ZM39.16,40.13c-.13.3-.22.62-.27.96l-13.94-1.29c.18-1.75.62-3.46,1.31-5.09.12-.28.24-.55.37-.82l12.54,6.25ZM38.84,41.55v.13c0,.29.03.58.09.86l-13.49,3.84c-.4-1.51-.61-3.07-.61-4.66,0-.49.02-.98.06-1.46l13.95,1.29ZM26.25,48.72c-.26-.62-.49-1.26-.68-1.9l13.49-3.84c.11.32.26.62.44.89l-11.22,8.47c-.82-1.12-1.5-2.33-2.04-3.62ZM39.78,44.23c.21.25.46.47.72.66l-.1.19-7.3,11.8c-1.08-.7-2.09-1.51-3.01-2.44-.55-.55-1.06-1.13-1.52-1.74l11.22-8.47ZM36.49,52.26l-2.73,5.02c-.09-.05-.18-.11-.27-.16l3.01-4.85ZM33.63,57.51l-3.15,5.78c-.15-.09-.33-.15-.52-.15h-.21l3.59-5.8c.09.06.19.11.29.17ZM35.07,58.26c.2.09.4.18.6.27,1.14.48,2.31.85,3.52,1.08l-1.3,6.95h-.17c-.44,0-.81.27-.95.66-1.93-.45-3.78-1.12-5.52-1.97l3.81-7ZM38.7,66.57h-.35l1.28-6.87c1.02.18,2.06.27,3.11.27s2.13-.09,3.17-.27l1.28,6.88h-.42c-.56,0-1.01.45-1.01,1.01v.16c-.99.11-2,.17-3.03.17s-2.03-.06-3.03-.17v-.16c0-.56-.45-1.01-1.01-1.01ZM55.52,63.14c-.42,0-.79.26-.94.64l-3.05-6.09c.22-.12.44-.25.65-.38l3.61,5.83h-.27ZM51.41,57.46l-3.64-7.27,4.27,6.9c-.21.13-.42.25-.63.37ZM45.49,45.65l-.4-.8c.25-.18.47-.39.67-.62l11.18,8.44c-.47.62-.99,1.21-1.55,1.77-.91.91-1.9,1.72-2.97,2.41l-6.93-11.2ZM46.04,43.86c.18-.27.33-.57.44-.89l13.43,3.82c-.19.65-.42,1.29-.68,1.92-.54,1.28-1.21,2.48-2.02,3.58l-11.17-8.44ZM68.81,39.04l-8.01.74c-.19-1.78-.63-3.52-1.33-5.17-.11-.27-.24-.54-.36-.81l4.66-2.32v2.01c0,.56.45,1.01,1.01,1.01h.98c.56,0,1.01-.45,1.01-1.01v-2.01c0-.11-.02-.21-.05-.31,1.08,2.45,1.8,5.1,2.08,7.88ZM65.8,30.47l.49-.24c.12.25.24.5.35.75-.17-.29-.48-.49-.84-.51ZM66.08,29.82l-1.3.65h0c-.33,0-.62.16-.81.4l-5.07,2.52c-.86-1.69-1.98-3.23-3.33-4.58-.13-.13-.27-.26-.4-.39l2.96-3.25v1.02c0,.56.45,1.01,1.01,1.01h.98c.56,0,1.01-.45,1.01-1.01v-2.01c0-.56-.45-1.01-1.01-1.01h-.17l.59-.65c2.24,2.08,4.12,4.56,5.53,7.31ZM60.22,22.21l-.87.95h-.2c-.56,0-1.01.45-1.01,1.01v.32l-3.3,3.62c-1.49-1.35-3.18-2.42-5.03-3.21-.08-.04-.17-.07-.25-.1l1.1-2.83c.18.16.41.25.67.25h.98c.56,0,1.01-.45,1.01-1.01v-2.01c0-.56-.45-1.01-1.01-1.01h-.19l.32-.82c2.88,1.15,5.51,2.8,7.78,4.84ZM33.1,17.35l.33.84h-.25c-.56,0-1.01.45-1.01,1.01v2.01c0,.56.45,1.01,1.01,1.01h.98c.28,0,.53-.11.71-.3l1.1,2.85c-.1.04-.2.08-.31.12-1.84.78-3.51,1.85-5,3.18l-3.33-3.65v-.25c0-.56-.45-1.01-1.01-1.01h-.14l-.9-.99c2.28-2.04,4.92-3.68,7.8-4.83ZM24.96,22.48l.62.68h-.23c-.56,0-1.01.45-1.01,1.01v2.01c0,.56.45,1.01,1.01,1.01h.98c.56,0,1.01-.45,1.01-1.01v-1.09l3,3.29c-.15.14-.3.28-.44.43-1.34,1.35-2.45,2.88-3.31,4.56l-5.13-2.55c-.17-.2-.42-.33-.69-.35l-1.36-.68c1.41-2.76,3.3-5.23,5.55-7.31ZM19.74,30.47h-.02c-.38,0-.7.21-.88.51.12-.26.24-.52.37-.77l.53.27ZM18.75,31.16c-.03.1-.05.2-.05.31v2.01c0,.56.45,1.01,1.01,1.01h.98c.56,0,1.01-.45,1.01-1.01v-2.04s4.68,2.33,4.68,2.33c-.13.27-.26.55-.38.83-.7,1.65-1.14,3.39-1.33,5.17l-8.01-.74c.28-2.77,1-5.42,2.08-7.87ZM24.14,60.15c.02-.09.04-.18.04-.28v-2.01c0-.56-.45-1.01-1.01-1.01h-.1l5.29-3.99c.47.62.99,1.21,1.55,1.76.94.94,1.96,1.77,3.06,2.48l-3.74,6.04h-.24c-.31,0-.59.14-.78.36-1.47-.98-2.83-2.11-4.06-3.35ZM25.84,72.73l4.4-5.6c.38-.11.67-.44.72-.84.39.19.78.36,1.18.53,1.49.63,3.02,1.12,4.58,1.47v1.3c0,.56.45,1.01,1.01,1.01h.98c.56,0,1.01-.45,1.01-1.01v-.8c1,.11,2.01.17,3.03.17s2.03-.06,3.03-.17v.8c0,.56.45,1.01,1.01,1.01h.98c.56,0,1.01-.45,1.01-1.01v-1.3c1.56-.35,3.09-.84,4.58-1.47.26-.11.52-.23.77-.34l4.51,6.63s-3.93,4.12-15.36,4.12c-13.3,0-17.42-4.49-17.42-4.49ZM57.28,63.5c-.19-.22-.46-.36-.78-.36h-.18l-3.76-6.07c1.08-.7,2.09-1.52,3.01-2.45.57-.57,1.09-1.17,1.57-1.8l5.33,4.02h-.17c-.56,0-1.01.45-1.01,1.01v2.01c0,.1.01.19.04.28-1.24,1.25-2.6,2.37-4.06,3.35Z" style="fill:none;"/></clipPath><linearGradient id="uuid-422f1a4c-7509-4ad4-85da-39709f67a402" x1="-27.8" y1="5226.07" x2="-26.8" y2="5226.07" gradientTransform="translate(1530.34 284810.15) scale(54.49 -54.49)" xlink:href="#uuid-8bddd86f-0014-4c0e-9cd9-d18c42f527db"/></defs><g id="uuid-8fa08061-c31f-4eb6-a26c-28a53edb8435"><g style="clip-path:url(#uuid-1c3b7ec9-9070-45ed-8538-f553e18ef931);"><g style="clip-path:url(#uuid-e6c9ffcc-5a45-4326-b900-7f0085b15cf0);"><g style="clip-path:url(#uuid-237998e7-e38b-4a2d-be3f-266462c367e8);"><path d="M83.79,46.46c0,22.38-18.15,40.53-40.53,40.53S2.73,68.84,2.73,46.46,20.88,5.93,43.26,5.93s40.53,18.15,40.53,40.53"/><path d="M86.67,43.24c0,23.85-19.34,43.19-43.19,43.19S.29,67.09.29,43.24,19.63.05,43.48.05s43.19,19.34,43.19,43.19" style="fill:#0b0f13;"/><path d="M43.3,1.66C20.05,1.66,1.19,20.52,1.19,43.77s18.85,42.11,42.11,42.11,42.11-18.85,42.11-42.11S66.56,1.66,43.3,1.66M43.3,86.28C19.83,86.28.8,67.25.8,43.77S19.83,1.27,43.3,1.27s42.5,19.03,42.5,42.5-19.03,42.5-42.5,42.5"/><path d="M43.3,2.05C20.26,2.05,1.58,20.73,1.58,43.77s18.68,41.72,41.72,41.72,41.72-18.68,41.72-41.72S66.34,2.05,43.3,2.05M43.3,85.88C20.05,85.88,1.19,67.03,1.19,43.77S20.05,1.66,43.3,1.66s42.11,18.85,42.11,42.11-18.85,42.11-42.11,42.11"/><path d="M43.3,2.45C20.48,2.45,1.97,20.95,1.97,43.77s18.5,41.33,41.33,41.33,41.33-18.5,41.33-41.33S66.13,2.45,43.3,2.45M43.3,85.49C20.26,85.49,1.58,66.81,1.58,43.77S20.26,2.05,43.3,2.05s41.72,18.68,41.72,41.72-18.68,41.72-41.72,41.72"/><path d="M43.3,2.84C20.69,2.84,2.37,21.16,2.37,43.77s18.33,40.94,40.94,40.94,40.94-18.33,40.94-40.94S65.91,2.84,43.3,2.84M43.3,85.1C20.48,85.1,1.97,66.6,1.97,43.77S20.48,2.45,43.3,2.45s41.33,18.5,41.33,41.33-18.5,41.33-41.33,41.33"/><path d="M43.3,3.23C20.91,3.23,2.76,21.38,2.76,43.77s18.15,40.54,40.54,40.54,40.54-18.15,40.54-40.54S65.69,3.23,43.3,3.23M43.3,84.71c-22.61,0-40.94-18.33-40.94-40.94S20.69,2.84,43.3,2.84s40.94,18.33,40.94,40.94-18.33,40.94-40.94,40.94"/><path d="M43.3,3.62C21.13,3.62,3.15,21.6,3.15,43.77s17.98,40.15,40.15,40.15,40.15-17.98,40.15-40.15S65.48,3.62,43.3,3.62M43.3,84.32c-22.39,0-40.54-18.15-40.54-40.54S20.91,3.23,43.3,3.23s40.54,18.15,40.54,40.54-18.15,40.54-40.54,40.54"/><path d="M43.3,4.01C21.34,4.01,3.54,21.81,3.54,43.77s17.8,39.76,39.76,39.76,39.76-17.8,39.76-39.76S65.26,4.01,43.3,4.01M43.3,83.92c-22.17,0-40.15-17.98-40.15-40.15S21.13,3.62,43.3,3.62s40.15,17.98,40.15,40.15-17.98,40.15-40.15,40.15"/><path d="M43.3,4.4C21.56,4.4,3.93,22.03,3.93,43.77s17.63,39.37,39.37,39.37,39.37-17.63,39.37-39.37S65.05,4.4,43.3,4.4M43.3,83.53c-21.96,0-39.76-17.8-39.76-39.76S21.34,4.01,43.3,4.01s39.76,17.8,39.76,39.76-17.8,39.76-39.76,39.76"/><path d="M43.3,4.8C21.78,4.8,4.33,22.25,4.33,43.77s17.45,38.98,38.98,38.98,38.98-17.45,38.98-38.98S64.83,4.8,43.3,4.8M43.3,83.14c-21.74,0-39.37-17.63-39.37-39.37S21.56,4.4,43.3,4.4s39.37,17.63,39.37,39.37-17.62,39.37-39.37,39.37"/><path d="M43.3,5.19C21.99,5.19,4.72,22.46,4.72,43.77s17.28,38.59,38.58,38.59,38.58-17.27,38.58-38.59S64.61,5.19,43.3,5.19M43.3,82.75c-21.53,0-38.98-17.45-38.98-38.98S21.78,4.8,43.3,4.8s38.98,17.45,38.98,38.98-17.45,38.98-38.98,38.98"/><path d="M43.3,5.58C22.21,5.58,5.11,22.68,5.11,43.77s17.1,38.19,38.19,38.19,38.19-17.1,38.19-38.19S64.4,5.58,43.3,5.58M43.3,82.36c-21.31,0-38.58-17.27-38.58-38.58S21.99,5.19,43.3,5.19s38.58,17.28,38.58,38.59-17.28,38.58-38.58,38.58"/><path d="M43.3,5.97C22.42,5.97,5.5,22.9,5.5,43.77s16.92,37.8,37.8,37.8,37.8-16.92,37.8-37.8S64.18,5.97,43.3,5.97M43.3,81.97c-21.09,0-38.19-17.1-38.19-38.19S22.21,5.58,43.3,5.58s38.19,17.1,38.19,38.19-17.1,38.19-38.19,38.19"/><path d="M43.3,6.36C22.64,6.36,5.89,23.11,5.89,43.77s16.75,37.41,37.41,37.41,37.41-16.75,37.41-37.41S63.96,6.36,43.3,6.36M43.3,81.57c-20.88,0-37.8-16.92-37.8-37.8S22.42,5.97,43.3,5.97s37.8,16.92,37.8,37.8-16.92,37.8-37.8,37.8"/><path d="M43.3,6.75C22.86,6.75,6.28,23.33,6.28,43.77s16.57,37.02,37.02,37.02,37.02-16.57,37.02-37.02S63.75,6.75,43.3,6.75M43.3,81.18c-20.66,0-37.41-16.75-37.41-37.41S22.64,6.36,43.3,6.36s37.41,16.75,37.41,37.41-16.75,37.41-37.41,37.41"/><path d="M43.3,7.15C23.07,7.15,6.68,23.54,6.68,43.77s16.4,36.63,36.63,36.63,36.63-16.4,36.63-36.63S63.53,7.15,43.3,7.15M43.3,80.79c-20.44,0-37.02-16.57-37.02-37.02S22.86,6.75,43.3,6.75s37.02,16.57,37.02,37.02-16.57,37.02-37.02,37.02"/><path d="M43.3,7.54C23.29,7.54,7.07,23.76,7.07,43.77s16.22,36.24,36.24,36.24,36.24-16.22,36.24-36.24S63.31,7.54,43.3,7.54M43.3,80.4c-20.23,0-36.63-16.4-36.63-36.63S23.07,7.15,43.3,7.15s36.63,16.4,36.63,36.63-16.4,36.63-36.63,36.63"/><path d="M43.3,7.93C23.51,7.93,7.46,23.98,7.46,43.77s16.05,35.84,35.84,35.84,35.84-16.05,35.84-35.84S63.1,7.93,43.3,7.93M43.3,80.01c-20.01,0-36.24-16.22-36.24-36.23S23.29,7.54,43.3,7.54s36.24,16.22,36.24,36.24-16.22,36.23-36.24,36.23"/><path d="M43.3,8.32C23.72,8.32,7.85,24.19,7.85,43.77s15.87,35.45,35.45,35.45,35.45-15.87,35.45-35.45S62.88,8.32,43.3,8.32M43.3,79.62c-19.8,0-35.84-16.05-35.84-35.84S23.51,7.93,43.3,7.93s35.84,16.05,35.84,35.84-16.05,35.84-35.84,35.84"/><path d="M43.3,8.71c-19.36,0-35.06,15.7-35.06,35.06s15.7,35.06,35.06,35.06,35.06-15.7,35.06-35.06S62.66,8.71,43.3,8.71M43.3,79.22c-19.58,0-35.45-15.87-35.45-35.45S23.72,8.32,43.3,8.32s35.45,15.87,35.45,35.45-15.87,35.45-35.45,35.45"/><path d="M43.3,9.1c-19.15,0-34.67,15.52-34.67,34.67s15.52,34.67,34.67,34.67,34.67-15.52,34.67-34.67S62.45,9.1,43.3,9.1M43.3,78.83c-19.36,0-35.06-15.7-35.06-35.06S23.94,8.71,43.3,8.71s35.06,15.7,35.06,35.06-15.7,35.06-35.06,35.06"/><path d="M43.3,9.5c-18.93,0-34.28,15.34-34.28,34.28s15.35,34.28,34.28,34.28,34.28-15.35,34.28-34.28S62.23,9.5,43.3,9.5M43.3,78.44c-19.15,0-34.67-15.52-34.67-34.67S24.16,9.1,43.3,9.1s34.67,15.52,34.67,34.67-15.52,34.67-34.67,34.67"/><path d="M43.3,9.89c-18.71,0-33.88,15.17-33.88,33.89s15.17,33.88,33.88,33.88,33.88-15.17,33.88-33.88S62.02,9.89,43.3,9.89M43.3,78.05c-18.93,0-34.28-15.35-34.28-34.28S24.37,9.5,43.3,9.5s34.28,15.35,34.28,34.28-15.35,34.28-34.28,34.28"/><path d="M43.3,10.28c-18.5,0-33.49,15-33.49,33.49s14.99,33.49,33.49,33.49,33.49-15,33.49-33.49S61.8,10.28,43.3,10.28M43.3,77.66c-18.71,0-33.88-15.17-33.88-33.88S24.59,9.89,43.3,9.89s33.88,15.17,33.88,33.88-15.17,33.88-33.88,33.88" style="fill:#000002;"/><path d="M43.3,10.67c-18.28,0-33.1,14.82-33.1,33.1s14.82,33.1,33.1,33.1,33.1-14.82,33.1-33.1S61.58,10.67,43.3,10.67M43.3,77.27c-18.5,0-33.49-15-33.49-33.49S24.8,10.28,43.3,10.28s33.49,15,33.49,33.49-15,33.49-33.49,33.49" style="fill:#000004;"/><path d="M43.3,11.06c-18.07,0-32.71,14.65-32.71,32.71s14.64,32.71,32.71,32.71,32.71-14.65,32.71-32.71S61.37,11.06,43.3,11.06M43.3,76.88c-18.28,0-33.1-14.82-33.1-33.1S25.02,10.67,43.3,10.67s33.1,14.82,33.1,33.1-14.82,33.1-33.1,33.1" style="fill:#000106;"/><path d="M43.3,11.46c-17.85,0-32.32,14.47-32.32,32.32s14.47,32.32,32.32,32.32,32.32-14.47,32.32-32.32S61.15,11.46,43.3,11.46M43.3,76.48c-18.07,0-32.71-14.65-32.71-32.71S25.24,11.06,43.3,11.06s32.71,14.65,32.71,32.71-14.64,32.71-32.71,32.71" style="fill:#000208;"/><path d="M43.3,11.85c-17.63,0-31.93,14.29-31.93,31.93s14.29,31.93,31.93,31.93,31.93-14.29,31.93-31.93-14.29-31.93-31.93-31.93M43.3,76.09c-17.85,0-32.32-14.47-32.32-32.32S25.45,11.46,43.3,11.46s32.32,14.47,32.32,32.32-14.47,32.32-32.32,32.32" style="fill:#02050b;"/><path d="M43.3,12.24c-17.42,0-31.53,14.12-31.53,31.53s14.12,31.53,31.53,31.53,31.53-14.12,31.53-31.53-14.12-31.53-31.53-31.53M43.3,75.7c-17.63,0-31.93-14.29-31.93-31.93s14.29-31.93,31.93-31.93,31.93,14.29,31.93,31.93-14.29,31.93-31.93,31.93" style="fill:#04070d;"/><path d="M43.3,12.63c-17.2,0-31.14,13.94-31.14,31.14s13.94,31.14,31.14,31.14,31.14-13.94,31.14-31.14-13.94-31.14-31.14-31.14M43.3,75.31c-17.42,0-31.53-14.12-31.53-31.53s14.12-31.53,31.53-31.53,31.53,14.12,31.53,31.53-14.12,31.53-31.53,31.53" style="fill:#05090e;"/><path d="M43.3,13.02c-16.98,0-30.75,13.77-30.75,30.75s13.77,30.75,30.75,30.75,30.75-13.77,30.75-30.75-13.77-30.75-30.75-30.75M43.3,74.92c-17.2,0-31.14-13.94-31.14-31.14s13.94-31.14,31.14-31.14,31.14,13.94,31.14,31.14-13.94,31.14-31.14,31.14" style="fill:#060b10;"/><path d="M43.3,13.41c-16.77,0-30.36,13.59-30.36,30.36s13.59,30.36,30.36,30.36,30.36-13.59,30.36-30.36-13.59-30.36-30.36-30.36M43.3,74.52c-16.98,0-30.75-13.77-30.75-30.75s13.77-30.75,30.75-30.75,30.75,13.77,30.75,30.75-13.77,30.75-30.75,30.75" style="fill:#090d12;"/><path d="M43.3,74.13c-16.77,0-30.36-13.59-30.36-30.36s13.59-30.36,30.36-30.36,30.36,13.59,30.36,30.36-13.59,30.36-30.36,30.36" style="fill:#0b0f14;"/></g></g></g><g style="clip-path:url(#uuid-dd6753a5-6512-43ef-84fe-6c25d52af384);"><g style="clip-path:url(#uuid-a832dc7f-d8d4-4799-9b4e-55c9cb0b3eef);"><rect width="87.04" height="87.03" style="fill:url(#uuid-8bddd86f-0014-4c0e-9cd9-d18c42f527db);"/></g></g><g style="clip-path:url(#uuid-34db6222-fb90-43e3-b964-2b1cf18d6e1e);"><rect x="15.49" y="14.47" width="54.49" height="64.63" style="fill:url(#uuid-422f1a4c-7509-4ad4-85da-39709f67a402);"/></g><path d="M105.27,30.7h-6.15v5.71h6.86v1.71h-8.9v-15.83h8.55v1.71h-6.5v5h6.15v1.69Z" style="fill:#9c6e29;"/><path d="M108.63,22.51c1.24-.19,2.72-.33,4.34-.33,2.94,0,5.03.68,6.41,1.97,1.41,1.29,2.23,3.12,2.23,5.68s-.8,4.7-2.28,6.15c-1.48,1.48-3.92,2.28-7,2.28-1.46,0-2.68-.07-3.71-.19v-15.57ZM110.67,36.51c.52.09,1.27.12,2.07.12,4.37,0,6.74-2.44,6.74-6.72.02-3.73-2.09-6.11-6.41-6.11-1.06,0-1.86.09-2.4.21v12.49Z" style="fill:#9c6e29;"/><path d="M126.31,22.3v15.83h-2.04v-15.83h2.04Z" style="fill:#9c6e29;"/><path d="M129.88,38.13v-15.83h2.23l5.07,8.01c1.17,1.85,2.09,3.52,2.84,5.14l.05-.02c-.19-2.11-.23-4.04-.23-6.5v-6.62h1.93v15.83h-2.07l-5.03-8.03c-1.1-1.76-2.16-3.57-2.96-5.28l-.07.02c.12,2,.16,3.9.16,6.53v6.76h-1.93Z" style="fill:#9c6e29;"/><path d="M145.33,22.51c.89-.19,2.3-.33,3.73-.33,2.04,0,3.36.35,4.34,1.15.82.61,1.32,1.55,1.32,2.79,0,1.53-1.01,2.87-2.68,3.48v.05c1.5.38,3.26,1.62,3.26,3.97,0,1.36-.54,2.4-1.34,3.17-1.1,1.01-2.89,1.48-5.47,1.48-1.41,0-2.49-.09-3.17-.19v-15.57ZM147.37,28.99h1.86c2.16,0,3.43-1.13,3.43-2.65,0-1.85-1.41-2.58-3.48-2.58-.94,0-1.48.07-1.81.14v5.1ZM147.37,36.58c.4.07.99.09,1.71.09,2.11,0,4.06-.77,4.06-3.08,0-2.16-1.85-3.05-4.09-3.05h-1.69v6.04Z" style="fill:#9c6e29;"/><path d="M160.1,22.3v9.37c0,3.55,1.57,5.05,3.69,5.05,2.35,0,3.85-1.55,3.85-5.05v-9.37h2.07v9.23c0,4.86-2.56,6.86-5.99,6.86-3.24,0-5.68-1.85-5.68-6.76v-9.32h2.07Z" style="fill:#9c6e29;"/><path d="M173.24,22.51c1.03-.21,2.51-.33,3.92-.33,2.18,0,3.59.4,4.58,1.29.8.7,1.24,1.78,1.24,3.01,0,2.09-1.31,3.48-2.98,4.04v.07c1.22.42,1.95,1.55,2.32,3.19.52,2.21.89,3.73,1.22,4.34h-2.11c-.26-.45-.61-1.81-1.06-3.78-.47-2.18-1.32-3.01-3.17-3.08h-1.93v6.86h-2.04v-15.62ZM175.29,29.72h2.09c2.18,0,3.57-1.2,3.57-3.01,0-2.04-1.48-2.94-3.64-2.96-.99,0-1.69.09-2.02.19v5.78Z" style="fill:#9c6e29;"/><path d="M197.92,37.42c-.92.33-2.72.87-4.86.87-2.4,0-4.37-.61-5.92-2.09-1.36-1.31-2.21-3.43-2.21-5.89.02-4.72,3.26-8.17,8.57-8.17,1.83,0,3.26.4,3.94.73l-.49,1.67c-.85-.38-1.9-.68-3.5-.68-3.85,0-6.36,2.4-6.36,6.36s2.42,6.39,6.11,6.39c1.34,0,2.25-.19,2.72-.42v-4.72h-3.22v-1.64h5.21v7.61Z" style="fill:#9c6e29;"/><path d="M203.09,22.3v6.62h7.66v-6.62h2.07v15.83h-2.07v-7.42h-7.66v7.42h-2.04v-15.83h2.04Z" style="fill:#9c6e29;"/><path d="M96.93,44.86c1.54-.32,3.96-.57,6.42-.57,3.52,0,5.78.61,7.48,1.98,1.41,1.05,2.26,2.67,2.26,4.81,0,2.63-1.74,4.93-4.61,5.98v.08c2.59.65,5.62,2.79,5.62,6.83,0,2.34-.93,4.12-2.3,5.45-1.9,1.74-4.97,2.55-9.41,2.55-2.42,0-4.28-.16-5.45-.32v-26.79ZM100.45,56.01h3.19c3.72,0,5.9-1.94,5.9-4.57,0-3.19-2.42-4.44-5.98-4.44-1.62,0-2.55.12-3.11.24v8.77ZM100.45,69.06c.69.12,1.7.16,2.95.16,3.64,0,6.99-1.33,6.99-5.29,0-3.72-3.19-5.25-7.03-5.25h-2.91v10.38Z" style="fill:#231f20;"/><path d="M122.34,44.49v27.23h-3.52v-27.23h3.52Z" style="fill:#231f20;"/><path d="M149.21,70.51c-1.58.57-4.69,1.5-8.36,1.5-4.12,0-7.52-1.05-10.18-3.6-2.34-2.26-3.8-5.9-3.8-10.14.04-8.12,5.62-14.06,14.75-14.06,3.15,0,5.62.69,6.79,1.25l-.85,2.87c-1.45-.65-3.27-1.17-6.02-1.17-6.63,0-10.95,4.12-10.95,10.95s4.16,10.99,10.51,10.99c2.3,0,3.88-.32,4.69-.73v-8.12h-5.54v-2.83h8.97v13.09Z" style="fill:#231f20;"/><path d="M166.14,71.73l-6.91-27.23h3.72l3.23,13.78c.81,3.39,1.54,6.79,2.02,9.41h.08c.44-2.71,1.29-5.94,2.22-9.46l3.64-13.74h3.68l3.31,13.82c.77,3.23,1.5,6.46,1.9,9.33h.08c.57-2.99,1.33-6.02,2.18-9.41l3.6-13.74h3.6l-7.72,27.23h-3.68l-3.43-14.18c-.85-3.48-1.41-6.14-1.78-8.89h-.08c-.48,2.71-1.09,5.37-2.1,8.89l-3.88,14.18h-3.68Z" style="fill:#231f20;"/><path d="M199.39,44.49v11.39h13.17v-11.39h3.56v27.23h-3.56v-12.77h-13.17v12.77h-3.52v-27.23h3.52Z" style="fill:#231f20;"/><path d="M236.32,58.96h-10.59v9.82h11.8v2.95h-15.31v-27.23h14.71v2.95h-11.19v8.61h10.59v2.91Z" style="fill:#231f20;"/><path d="M256.19,58.96h-10.59v9.82h11.8v2.95h-15.31v-27.23h14.71v2.95h-11.19v8.61h10.59v2.91Z" style="fill:#231f20;"/><path d="M261.97,44.49h3.52v24.28h11.64v2.95h-15.15v-27.23Z" style="fill:#231f20;"/></g></svg>